Walking02_kinetics.mot
version=1
nRows=24
nColumns=19
inDegrees=yes
endheader
time	1_ground_force_vx	1_ground_force_vy	1_ground_force_vz	1_ground_force_px	1_ground_force_py	1_ground_force_pz	2_ground_force_vx	2_ground_force_vy	2_ground_force_vz	2_ground_force_px	2_ground_force_py	2_ground_force_pz	1_ground_torque_x	1_ground_torque_y	1_ground_torque_z	2_ground_torque_x	2_ground_torque_y	2_ground_torque_z
  0.24500000	  0.00000000	  0.00000000	  0.00000000	  0.30048871	 -0.00042294	 -0.20058549	-28.22020270	459.61024216	-42.12708988	 -0.34382467	  0.00252686	  0.00206081	  0.00000000	  0.00000000	  0.00000000	  0.00217257	  1.66710612	  0.00005508
  0.24600000	  0.00000000	  0.00000000	  0.00000000	  0.30048871	 -0.00042294	 -0.20058549	-27.83060514	457.61267479	-42.06939201	 -0.34321196	  0.00252606	  0.00206610	  0.00000000	  0.00000000	  0.00000000	  0.00216652	  1.66246593	  0.00005493
  0.24700000	  0.00000000	  0.00000000	  0.00000000	  0.30048871	 -0.00042294	 -0.20058549	-27.42078545	455.55683016	-42.03534354	 -0.34260209	  0.00252526	  0.00204018	  0.00000000	  0.00000000	  0.00000000	  0.00216849	  1.66397833	  0.00005498
  0.24800000	  0.00000000	  0.00000000	  0.00000000	  0.30048871	 -0.00042294	 -0.20058549	-26.99442755	453.46396195	-42.01767069	 -0.34199730	  0.00252448	  0.00198532	  0.00000000	  0.00000000	  0.00000000	  0.00217761	  1.67097649	  0.00005521
  0.24900000	  0.00000000	  0.00000000	  0.00000000	  0.30048871	 -0.00042294	 -0.20058549	-26.55922002	451.36957408	-42.00751234	 -0.34140057	  0.00252370	  0.00190859	  0.00000000	  0.00000000	  0.00000000	  0.00219239	  1.68231395	  0.00005558
  0.25000000	  0.00000000	  0.00000000	  0.00000000	  0.30048871	 -0.00042294	 -0.20058549	-26.12568986	449.32089487	-41.99525219	 -0.34081486	  0.00252294	  0.00182104	  0.00000000	  0.00000000	  0.00000000	  0.00221109	  1.69666797	  0.00005606
  0.25100000	  0.00000000	  0.00000000	  0.00000000	  0.30048871	 -0.00042294	 -0.20058549	-25.70551781	447.37022139	-41.97117877	 -0.34024260	  0.00252220	  0.00173555	  0.00000000	  0.00000000	  0.00000000	  0.00223190	  1.71263661	  0.00005658
  0.25200000	  0.00000000	  0.00000000	  0.00000000	  0.30048871	 -0.00042294	 -0.20058549	-25.30977676	445.56626467	-41.92642101	 -0.33968510	  0.00252148	  0.00166412	  0.00000000	  0.00000000	  0.00000000	  0.00225295	  1.72878925	  0.00005712
  0.25300000	  0.00000000	  0.00000000	  0.00000000	  0.30048871	 -0.00042294	 -0.20058549	-24.94746641	443.94570854	-41.85431987	 -0.33914153	  0.00252077	  0.00161553	  0.00000000	  0.00000000	  0.00000000	  0.00227249	  1.74378349	  0.00005761
  0.25400000	  0.00000000	  0.00000000	  0.00000000	  0.30048871	 -0.00042294	 -0.20058549	-24.62447487	442.52743980	-41.75143656	 -0.33860838	  0.00252007	  0.00159410	  0.00000000	  0.00000000	  0.00000000	  0.00228907	  1.75650210	  0.00005803
  0.25500000	  0.00000000	  0.00000000	  0.00000000	  0.30048871	 -0.00042294	 -0.20058549	-24.34305011	441.31209028	-41.61709733	 -0.33807994	  0.00251939	  0.00160003	  0.00000000	  0.00000000	  0.00000000	  0.00230160	  1.76611611	  0.00005835
  0.25600000	  0.00000000	  0.00000000	  0.00000000	  0.30048871	 -0.00042294	 -0.20058549	-24.10184921	440.28670121	-41.45165544	 -0.33755006	  0.00251869	  0.00163109	  0.00000000	  0.00000000	  0.00000000	  0.00230935	  1.77206404	  0.00005855
  0.25700000	  0.00000000	  0.00000000	  0.00000000	  0.30048871	 -0.00042294	 -0.20058549	-23.89672840	439.43143251	-41.25508852	 -0.33701439	  0.00251799	  0.00168444	  0.00000000	  0.00000000	  0.00000000	  0.00231188	  1.77400466	  0.00005861
  0.25800000	  0.00000000	  0.00000000	  0.00000000	  0.30048871	 -0.00042294	 -0.20058549	-23.72224899	438.72573071	-41.02705061	 -0.33647216	  0.00251729	  0.00175727	  0.00000000	  0.00000000	  0.00000000	  0.00230899	  1.77179218	  0.00005854
  0.25900000	  0.00000000	  0.00000000	  0.00000000	  0.30048871	 -0.00042294	 -0.20058549	-23.57309041	438.15258369	-40.76777658	 -0.33592673	  0.00251657	  0.00184680	  0.00000000	  0.00000000	  0.00000000	  0.00230080	  1.76550284	  0.00005833
  0.26000000	  0.00000000	  0.00000000	  0.00000000	  0.30048871	 -0.00042294	 -0.20058549	-23.44436087	437.69990634	-40.47874498	 -0.33538374	  0.00251586	  0.00195003	  0.00000000	  0.00000000	  0.00000000	  0.00228781	  1.75553398	  0.00005800
  0.26100000	  0.00000000	  0.00000000	  0.00000000	  0.30048871	 -0.00042294	 -0.20058549	-23.33077071	437.35879499	-40.16290354	 -0.33484745	  0.00251516	  0.00206344	  0.00000000	  0.00000000	  0.00000000	  0.00227113	  1.74273684	  0.00005758
  0.26200000	  0.00000000	  0.00000000	  0.00000000	  0.30048871	 -0.00042294	 -0.20058549	-23.22553521	437.11869961	-39.82496308	 -0.33431836	  0.00251446	  0.00218241	  0.00000000	  0.00000000	  0.00000000	  0.00225250	  1.72844523	  0.00005711
  0.26300000	  0.00000000	  0.00000000	  0.00000000	  0.30048871	 -0.00042294	 -0.20058549	-23.11977277	436.96059538	-39.47194301	 -0.33379381	  0.00251378	  0.00230042	  0.00000000	  0.00000000	  0.00000000	  0.00223409	  1.71431747	  0.00005664
  0.26400000	  0.00000000	  0.00000000	  0.00000000	  0.30048871	 -0.00042294	 -0.20058549	-23.00276052	436.85270974	-39.11314639	 -0.33327049	  0.00251309	  0.00240884	  0.00000000	  0.00000000	  0.00000000	  0.00221819	  1.70211465	  0.00005624
  0.26500000	  0.00000000	  0.00000000	  0.00000000	  0.30048871	 -0.00042294	 -0.20058549	-22.86331628	436.75445405	-38.75841668	 -0.33274647	  0.00251241	  0.00249835	  0.00000000	  0.00000000	  0.00000000	  0.00220709	  1.69359414	  0.00005596
  0.26600000	  0.00000000	  0.00000000	  0.00000000	  0.30048871	 -0.00042294	 -0.20058549	-22.69202943	436.62763848	-38.41509241	 -0.33222203	  0.00251172	  0.00256176	  0.00000000	  0.00000000	  0.00000000	  0.00220303	  1.69048332	  0.00005585
  0.26700000	  0.00000000	  0.00000000	  0.00000000	  0.30048871	 -0.00042294	 -0.20058549	-22.48316206	436.44633207	-38.08612457	 -0.33169946	  0.00251104	  0.00259609	  0.00000000	  0.00000000	  0.00000000	  0.00220796	  1.69426225	  0.00005598
  0.26800000	  0.00000000	  0.00000000	  0.00000000	  0.30048871	 -0.00042294	 -0.20058549	-22.23530834	436.19907469	-37.77100271	 -0.33118186	  0.00251036	  0.00260261	  0.00000000	  0.00000000	  0.00000000	  0.00222278	  1.70563571	  0.00005635
